<svg height="480pt" viewBox="0 0 480 480" width="480pt" xmlns="http://www.w3.org/2000/svg"><path d="m284.984375 88.390625c-8.117187-1.296875-16.417969.640625-23.121094 5.394531-1.855469 1.378906-4.089843 2.152344-6.398437 2.214844h-5.066406c-5.742188 0-10.398438-4.65625-10.398438-10.398438v-77.601562h-184c-26.507812 0-48 21.492188-48 48v184h69.601562c5.742188 0 10.398438-4.65625 10.398438-10.398438v-5.050781c-.0625-2.308593-.835938-4.542969-2.214844-6.398437-4.746094-6.695313-6.683594-14.984375-5.402344-23.089844 3.035157-15.96875 17.164063-27.410156 33.417969-27.0625h12.4375c16.226563-.339844 30.324219 11.078125 33.371094 27.015625 1.296875 8.117187-.640625 16.417969-5.394531 23.121094-1.378906 1.855469-2.152344 4.089843-2.214844 6.398437v5.066406c0 5.742188 4.65625 10.398438 10.398438 10.398438h77.601562v-69.601562c0-5.742188 4.65625-10.398438 10.398438-10.398438h5.050781c2.308593.0625 4.542969.835938 6.398437 2.214844 6.703125 4.753906 15.003906 6.691406 23.121094 5.394531 15.945312-3.039063 27.367188-17.140625 27.03125-33.371094v-12.476562c.339844-16.226563-11.078125-30.324219-27.015625-33.371094zm0 0" fill="#f35244"/><path d="m195.015625 320.390625c8.117187-1.296875 16.417969.640625 23.121094 5.394531 1.855469 1.378906 4.089843 2.152344 6.398437 2.214844h5.066406c5.742188 0 10.398438-4.65625 10.398438-10.398438v-77.601562h-77.601562c-5.742188 0-10.398438-4.65625-10.398438-10.398438v-5.050781c.0625-2.308593.835938-4.542969 2.214844-6.398437 4.753906-6.703125 6.691406-15.003906 5.394531-23.121094-3.039063-15.945312-17.140625-27.367188-33.371094-27.03125h-12.4375c-16.25-.351562-30.375 11.082031-33.417969 27.046875-1.28125 8.105469.65625 16.394531 5.402344 23.089844 1.378906 1.855469 2.152344 4.089843 2.214844 6.398437v5.066406c0 5.742188-4.65625 10.398438-10.398438 10.398438h-69.601562v184c0 26.507812 21.492188 48 48 48h184v-69.601562c0-5.742188-4.65625-10.398438-10.398438-10.398438h-5.050781c-2.308593.0625-4.542969.835938-6.398437 2.214844-6.703125 4.753906-15.003906 6.691406-23.121094 5.394531-15.945312-3.039063-27.367188-17.140625-27.03125-33.371094v-12.476562c-.339844-16.226563 11.078125-30.324219 27.015625-33.371094zm0 0" fill="#348fd9"/><path d="m384 250.398438v5.050781c.0625 2.308593.835938 4.542969 2.214844 6.398437 4.753906 6.703125 6.691406 15.003906 5.394531 23.121094-3.039063 15.945312-17.140625 27.367188-33.371094 27.03125h-12.476562c-16.226563.339844-30.324219-11.078125-33.371094-27.015625-1.296875-8.117187.640625-16.417969 5.394531-23.121094 1.378906-1.855469 2.152344-4.089843 2.214844-6.398437v-5.066406c0-5.742188-4.65625-10.398438-10.398438-10.398438h-69.601562v77.601562c0 5.742188-4.65625 10.398438-10.398438 10.398438h-5.050781c-2.308593-.0625-4.542969-.835938-6.398437-2.214844-6.703125-4.753906-15.003906-6.691406-23.121094-5.394531-15.945312 3.039063-27.367188 17.140625-27.03125 33.371094v12.476562c-.339844 16.226563 11.078125 30.324219 27.015625 33.371094 8.117187 1.296875 16.417969-.640625 23.121094-5.394531 1.855469-1.378906 4.089843-2.152344 6.398437-2.214844h5.066406c5.742188 0 10.398438 4.65625 10.398438 10.398438v69.601562h184c26.507812 0 48-21.492188 48-48v-184h-77.601562c-5.742188 0-10.398438 4.65625-10.398438 10.398438zm0 0" fill="#ffb531"/><path d="m32 48h16v16h-16zm0 0" fill="#fc685b"/><path d="m32 80h16v88h-16zm0 0" fill="#fc685b"/><path d="m229.601562 392h-5.042968c-2.308594.0625-4.542969.835938-6.398438 2.214844-6.703125 4.753906-15.003906 6.691406-23.121094 5.394531-1.953124-.300781-3.871093-.796875-5.726562-1.480469-1.324219-.527344-2.613281-1.148437-3.847656-1.855468-58.277344 13.714843-117.671875 22.15625-177.464844 25.222656v2.503906c0 26.507812 21.492188 48 48 48h184v-69.601562c0-5.742188-4.65625-10.398438-10.398438-10.398438zm0 0" fill="#3086cd"/><path d="m185.441406 396.273438c1.234375.707031 2.519532 1.328124 3.847656 1.855468 1.855469.683594 3.773438 1.179688 5.726563 1.480469 8.117187 1.296875 16.417969-.640625 23.121094-5.394531 1.855469-1.378906 4.089843-2.152344 6.398437-2.214844h5.039063c2.765625-.007812 5.414062 1.085938 7.371093 3.039062 1.957032 1.949219 3.054688 4.597657 3.054688 7.359376v69.601562h184c26.507812 0 48-21.492188 48-48v-184h-12.414062c-67.53125 85.792969-173.089844 131.816406-274.144532 156.273438zm0 0" fill="#ffa912"/><path d="m472 232h-77.601562c-10.160157 0-18.398438 8.238281-18.398438 18.398438v5.050781c.058594 3.957031 1.339844 7.796875 3.664062 11 3.566407 5.015625 5.015626 11.234375 4.039063 17.3125-2.429687 12.046875-13.183594 20.59375-25.472656 20.238281h-12.460938c-12.289062.355469-23.042969-8.191406-25.472656-20.238281-.980469-6.078125.472656-12.292969 4.039063-17.304688 2.324218-3.207031 3.601562-7.050781 3.664062-11.007812v-5.050781c0-10.160157-8.238281-18.398438-18.398438-18.398438h-61.601562v-61.601562c0-1.324219 1.074219-2.398438 2.398438-2.398438h5.050781c.667969.089844 1.300781.367188 1.824219.800781 8.40625 5.910157 18.78125 8.324219 28.933593 6.734375 19.835938-3.671875 34.121094-21.132812 33.792969-41.304687v-12.460938c.316406-20.164062-13.964844-37.609375-33.792969-41.28125-10.15625-1.59375-20.535156.820313-28.941406 6.734375-.519531.433594-1.148437.710938-1.816406.800782h-5.050781c-1.324219 0-2.398438-1.074219-2.398438-2.398438v-77.625c0-4.417969-3.582031-8-8-8h-184c-30.910156.0390625-55.9609375 25.089844-56 56v368c.0390625 30.910156 25.089844 55.960938 56 56h368c30.910156-.039062 55.960938-25.089844 56-56v-184c0-4.417969-3.582031-8-8-8zm-456-176c.027344-22.082031 17.917969-39.972656 40-40h176v69.601562c0 10.160157 8.238281 18.398438 18.398438 18.398438h5.050781c3.957031-.058594 7.796875-1.339844 11-3.664062 5.019531-3.558594 11.238281-4.992188 17.3125-4 12.03125 2.425781 20.574219 13.160156 20.238281 25.433593v12.460938c.355469 12.289062-8.191406 23.042969-20.238281 25.472656-6.074219.96875-12.289063-.480469-17.304688-4.039063-3.207031-2.324218-7.050781-3.601562-11.007812-3.664062h-5.050781c-10.160157 0-18.398438 8.238281-18.398438 18.398438v61.601562h-69.601562c-1.324219 0-2.398438-1.074219-2.398438-2.398438v-5.050781c.089844-.667969.367188-1.300781.800781-1.824219 5.914063-8.40625 8.328125-18.78125 6.734375-28.933593-3.671875-19.835938-21.132812-34.121094-41.304687-33.792969h-12.429688c-20.1875-.328125-37.65625 13.972656-41.320312 33.824219-1.578125 10.152343.84375 20.519531 6.757812 28.917969.429688.519531.707031 1.144531.800781 1.808593v5.050781c0 1.324219-1.074218 2.398438-2.398437 2.398438h-61.640625zm0 368v-176h61.601562c10.160157 0 18.398438-8.238281 18.398438-18.398438v-5.050781c-.058594-3.957031-1.339844-7.796875-3.664062-11-3.558594-5.007812-5.011719-11.210937-4.046876-17.277343 2.429688-12.070313 13.203126-20.632813 25.511719-20.273438h12.429688c12.289062-.355469 23.042969 8.191406 25.472656 20.238281.984375 6.070313-.453125 12.277344-4 17.296875-2.34375 3.203125-3.636719 7.050782-3.703125 11.015625v5.050781c0 10.160157 8.238281 18.398438 18.398438 18.398438h69.601562v69.601562c0 1.324219-1.074219 2.398438-2.398438 2.398438h-5.050781c-.667969-.089844-1.300781-.367188-1.824219-.800781-2.097656-1.46875-4.332031-2.730469-6.671874-3.773438-6.976563-3.128906-14.710938-4.15625-22.261719-2.960937-19.835938 3.671875-34.121094 21.132812-33.792969 41.304687v12.460938c-.316406 20.164062 13.964844 37.609375 33.792969 41.28125 10.15625 1.597656 20.535156-.816407 28.941406-6.734375.519531-.433594 1.148437-.710938 1.816406-.800782h5.050781c1.324219 0 2.398438 1.074219 2.398438 2.398438v61.625h-176c-22.082031-.027344-39.972656-17.917969-40-40zm448 0c-.027344 22.082031-17.917969 39.972656-40 40h-176v-61.601562c0-10.160157-8.238281-18.398438-18.398438-18.398438h-5.050781c-3.957031.058594-7.796875 1.339844-11 3.664062-5.023437 3.550782-11.234375 5.003907-17.3125 4.039063-12.046875-2.429687-20.59375-13.183594-20.238281-25.472656v-12.460938c-.355469-12.289062 8.191406-23.042969 20.238281-25.472656 6.078125-.980469 12.292969.472656 17.304688 4.039063 3.207031 2.324218 7.050781 3.601562 11.007812 3.664062h5.050781c10.160157 0 18.398438-8.238281 18.398438-18.398438v-69.601562h61.601562c1.324219 0 2.398438 1.074219 2.398438 2.398438v5.050781c-.089844.667969-.367188 1.300781-.800781 1.824219-5.914063 8.40625-8.328125 18.78125-6.734375 28.933593 3.671875 19.835938 21.132812 34.121094 41.304687 33.792969h12.460938c20.164062.316406 37.609375-13.964844 41.28125-33.792969 1.59375-10.15625-.820313-20.535156-6.734375-28.941406-.433594-.519531-.710938-1.148437-.800782-1.816406v-5.050781c0-1.324219 1.074219-2.398438 2.398438-2.398438h69.625zm0 0"/><path d="m32 48h16v16h-16zm0 0"/><path d="m32 80h16v88h-16zm0 0"/></svg>